<mxfile host="app.diagrams.net" modified="2024-05-15T03:25:50.782Z" agent="Mozilla/5.0 (Macintosh; Intel Mac OS X 10.15; rv:126.0) Gecko/20100101 Firefox/126.0" version="24.4.0" etag="8sQRQmIzcV84o-cQDM0p" type="github">
  <diagram name="Page-1" id="xc8wXIcMyxvUl74WValZ">
    <mxGraphModel>
      <root>
        <mxCell id="0" />
        <mxCell id="1" parent="0" />
      </root>
    </mxGraphModel>
  </diagram>
</mxfile>
